<svg width="100" height="49" viewBox="0 0 100 49" fill="none" xmlns="http://www.w3.org/2000/svg">
<circle cx="20" cy="22" r="20" fill="url(#paint0_linear)"/>
<path d="M10.191 21.5405L19.5405 12.191L28.9018 21.5524L19.5524 30.9018L10.191 21.5405Z" stroke="white" stroke-width="0.270182"/>
<path d="M17.191 17.5405L26.5405 8.19104L35.9018 17.5524L26.5524 26.9018L17.191 17.5405Z" stroke="white" stroke-width="0.270182"/>
<path d="M17.191 26.5405L26.5405 17.191L35.9018 26.5524L26.5524 35.9018L17.191 26.5405Z" stroke="white" stroke-width="0.270182"/>
<path d="M2.19105 26.5405L11.5405 17.191L20.9018 26.5524L11.5524 35.9018L2.19105 26.5405Z" stroke="white" stroke-width="0.270182"/>
<path d="M4.19105 15.5405L13.5405 6.19104L22.9018 15.5524L13.5524 24.9018L4.19105 15.5405Z" stroke="white" stroke-width="0.270182"/>
<path d="M11.9441 21.3929L19.3949 13.9421L26.8458 21.3929L19.3949 28.8438L11.9441 21.3929Z" stroke="white" stroke-width="0.270182"/>
<path d="M18.9441 17.3929L26.3949 9.94209L33.8458 17.3929L26.3949 24.8438L18.9441 17.3929Z" stroke="white" stroke-width="0.270182"/>
<path d="M18.9441 26.3929L26.3949 18.9421L33.8458 26.3929L26.3949 33.8438L18.9441 26.3929Z" stroke="white" stroke-width="0.270182"/>
<path d="M3.94407 26.3929L11.3949 18.9421L18.8458 26.3929L11.3949 33.8438L3.94407 26.3929Z" stroke="white" stroke-width="0.270182"/>
<path d="M5.94407 15.3929L13.3949 7.94209L20.8458 15.3929L13.3949 22.8438L5.94407 15.3929Z" stroke="white" stroke-width="0.270182"/>
<path d="M47.0078 27.3945C45.0781 26.8398 43.6719 26.1602 42.7891 25.3555C41.9141 24.543 41.4766 23.543 41.4766 22.3555C41.4766 21.0117 42.0117 19.9023 43.082 19.0273C44.1602 18.1445 45.5586 17.7031 47.2773 17.7031C48.4492 17.7031 49.4922 17.9297 50.4062 18.3828C51.3281 18.8359 52.0391 19.4609 52.5391 20.2578C53.0469 21.0547 53.3008 21.9258 53.3008 22.8711H51.0391C51.0391 21.8398 50.7109 21.0312 50.0547 20.4453C49.3984 19.8516 48.4727 19.5547 47.2773 19.5547C46.168 19.5547 45.3008 19.8008 44.6758 20.293C44.0586 20.7773 43.75 21.4531 43.75 22.3203C43.75 23.0156 44.043 23.6055 44.6289 24.0898C45.2227 24.5664 46.2266 25.0039 47.6406 25.4023C49.0625 25.8008 50.1719 26.2422 50.9688 26.7266C51.7734 27.2031 52.3672 27.7617 52.75 28.4023C53.1406 29.043 53.3359 29.7969 53.3359 30.6641C53.3359 32.0469 52.7969 33.1562 51.7188 33.9922C50.6406 34.8203 49.1992 35.2344 47.3945 35.2344C46.2227 35.2344 45.1289 35.0117 44.1133 34.5664C43.0977 34.1133 42.3125 33.4961 41.7578 32.7148C41.2109 31.9336 40.9375 31.0469 40.9375 30.0547H43.1992C43.1992 31.0859 43.5781 31.9023 44.3359 32.5039C45.1016 33.0977 46.1211 33.3945 47.3945 33.3945C48.582 33.3945 49.4922 33.1523 50.125 32.668C50.7578 32.1836 51.0742 31.5234 51.0742 30.6875C51.0742 29.8516 50.7812 29.207 50.1953 28.7539C49.6094 28.293 48.5469 27.8398 47.0078 27.3945ZM63.7188 35C63.5938 34.75 63.4922 34.3047 63.4141 33.6641C62.4062 34.7109 61.2031 35.2344 59.8047 35.2344C58.5547 35.2344 57.5273 34.8828 56.7227 34.1797C55.9258 33.4688 55.5273 32.5703 55.5273 31.4844C55.5273 30.1641 56.0273 29.1406 57.0273 28.4141C58.0352 27.6797 59.4492 27.3125 61.2695 27.3125H63.3789V26.3164C63.3789 25.5586 63.1523 24.957 62.6992 24.5117C62.2461 24.0586 61.5781 23.832 60.6953 23.832C59.9219 23.832 59.2734 24.0273 58.75 24.418C58.2266 24.8086 57.9648 25.2812 57.9648 25.8359H55.7852C55.7852 25.2031 56.0078 24.5938 56.4531 24.0078C56.9062 23.4141 57.5156 22.9453 58.2812 22.6016C59.0547 22.2578 59.9023 22.0859 60.8242 22.0859C62.2852 22.0859 63.4297 22.4531 64.2578 23.1875C65.0859 23.9141 65.5156 24.918 65.5469 26.1992V32.0352C65.5469 33.1992 65.6953 34.125 65.9922 34.8125V35H63.7188ZM60.1211 33.3477C60.8008 33.3477 61.4453 33.1719 62.0547 32.8203C62.6641 32.4688 63.1055 32.0117 63.3789 31.4492V28.8477H61.6797C59.0234 28.8477 57.6953 29.625 57.6953 31.1797C57.6953 31.8594 57.9219 32.3906 58.375 32.7734C58.8281 33.1562 59.4102 33.3477 60.1211 33.3477ZM71.3008 35H69.1328V22.3203H71.3008V35ZM68.957 18.957C68.957 18.6055 69.0625 18.3086 69.2734 18.0664C69.4922 17.8242 69.8125 17.7031 70.2344 17.7031C70.6562 17.7031 70.9766 17.8242 71.1953 18.0664C71.4141 18.3086 71.5234 18.6055 71.5234 18.957C71.5234 19.3086 71.4141 19.6016 71.1953 19.8359C70.9766 20.0703 70.6562 20.1875 70.2344 20.1875C69.8125 20.1875 69.4922 20.0703 69.2734 19.8359C69.0625 19.6016 68.957 19.3086 68.957 18.957ZM85.4922 28.8008C85.4922 30.7305 85.0508 32.2852 84.168 33.4648C83.2852 34.6445 82.0898 35.2344 80.582 35.2344C79.043 35.2344 77.832 34.7461 76.9492 33.7695V39.875H74.7812V22.3203H76.7617L76.8672 23.7266C77.75 22.6328 78.9766 22.0859 80.5469 22.0859C82.0703 22.0859 83.2734 22.6602 84.1562 23.8086C85.0469 24.957 85.4922 26.5547 85.4922 28.6016V28.8008ZM83.3242 28.5547C83.3242 27.125 83.0195 25.9961 82.4102 25.168C81.8008 24.3398 80.9648 23.9258 79.9023 23.9258C78.5898 23.9258 77.6055 24.5078 76.9492 25.6719V31.7305C77.5977 32.8867 78.5898 33.4648 79.9258 33.4648C80.9648 33.4648 81.7891 33.0547 82.3984 32.2344C83.0156 31.4062 83.3242 30.1797 83.3242 28.5547ZM90.4258 23.8555C91.3867 22.6758 92.6367 22.0859 94.1758 22.0859C96.8555 22.0859 98.207 23.5977 98.2305 26.6211V35H96.0625V26.6094C96.0547 25.6953 95.8438 25.0195 95.4297 24.582C95.0234 24.1445 94.3867 23.9258 93.5195 23.9258C92.8164 23.9258 92.1992 24.1133 91.668 24.4883C91.1367 24.8633 90.7227 25.3555 90.4258 25.9648V35H88.2578V17H90.4258V23.8555Z" fill="url(#paint1_linear)"/>
<defs>
<linearGradient id="paint0_linear" x1="20" y1="2" x2="20" y2="42" gradientUnits="userSpaceOnUse">
<stop stop-color="#BB6BD9"/>
<stop offset="1" stop-color="#2D9CDB"/>
</linearGradient>
<linearGradient id="paint1_linear" x1="70" y1="13" x2="70" y2="41" gradientUnits="userSpaceOnUse">
<stop stop-color="#333333"/>
<stop offset="1" stop-color="#2F80ED"/>
</linearGradient>
</defs>
</svg>
